<svg xmlns="http://www.w3.org/2000/svg" width="50" height="50" viewBox="0 0 50 50">
  <g fill="none" fill-rule="evenodd">
    <circle cx="25" cy="25" r="25" fill="#D0021B" fill-rule="nonzero"/>
    <polygon fill="#FFF" points="40 23.667 37.333 23.667 37.333 21 34.667 21 34.667 23.667 32 23.667 32 26.333 34.667 26.333 34.667 29 37.333 29 37.333 26.333 40 26.333"/>
    <path fill="#FFF" d="M21.1837111,23.714318 L21.1837111,26.8000226 L26.3922041,26.8000226 C26.1823144,28.1243564 24.8178009,30.6828365 21.1837111,30.6828365 C18.048167,30.6828365 15.4898195,28.1371274 15.4898195,25 C15.4898195,21.8628726 18.048167,19.3171635 21.1837111,19.3171635 C22.968004,19.3171635 24.161838,20.06285 24.8440948,20.705691 L27.3367076,18.352902 C25.7361259,16.8871839 23.6632924,16 21.1837111,16 C16.1064569,16 12,20.0243112 12,25 C12,29.9756888 16.1064569,34 21.1837111,34 C26.484002,34 30,30.348532 30,25.205691 C30,24.6142728 29.934496,24.1642389 29.8557297,23.714318 L21.1837111,23.714318 Z"/>
  </g>
</svg>
