<svg xmlns="http://www.w3.org/2000/svg" width="21" height="17" viewBox="0 0 21 17">
  <g fill="none" fill-rule="evenodd" stroke="#006DFF" stroke-width="1.5" transform="translate(1 1)">
    <path d="M8.35997047,14.9998411 L1.51999463,14.9998411 C0.680197597,14.9998411 -2.95585778e-12,14.3443463 -2.95585778e-12,13.5156029 L-1.40062733e-12,7.51565056 C-1.40062733e-12,6.68690715 0.680197597,5.99991261 1.51999463,5.99991261 L8.36439907,5.99991261 L9.66640586,1.36944939 C9.82068531,0.381707242 10.8603616,-0.281287491 11.9137179,0.117709339 C12.5437557,0.356957439 12.9199544,1.0042023 12.9199544,1.670947 L12.9199544,5.26566844 C12.9199544,5.67966515 13.2604332,5.99991261 13.6799517,5.99991261 L16.9205802,5.99991261 C18.2574155,5.99991261 19.246172,7.23140282 18.9459731,8.51614262 L17.6250977,13.4173537 C17.4077385,14.3480963 16.5679415,14.9998411 15.5997049,14.9998411 L8.35997047,14.9998411 Z"/>
    <path stroke-linecap="square" d="M6.5,6.47351074 L6.5,14.6355286"/>
  </g>
</svg>
