<svg xmlns="http://www.w3.org/2000/svg" width="25" height="27" viewBox="0 0 25 27">
  <g fill="none" fill-rule="evenodd" transform="translate(1 1)">
    <text fill="#979797" font-family="Roboto-Bold, Roboto" font-size="10" font-weight="bold" transform="rotate(-49 11.566 15.236)">
      <tspan x="9.409" y="18.736">$</tspan>
    </text>
    <path stroke="#979797" stroke-width="1.5" d="M13.0724493,4.0460274 C6.30455139,10.6541037 2.60421136,14.3362955 1.97142917,15.0926027 C1.02225588,16.2270636 0.657143488,16.8646575 1.38469449,18.0153425 C1.86972849,18.7824658 4.09932026,20.8767123 8.07346981,24.2980822 C9.10612284,25.2339726 10.2874153,25.2339726 11.6173473,24.2980822 C12.9472792,23.3621918 16.7414968,19.8410959 23,13.7347945 L23,5.6339726 C22.7027211,4.63671233 22.0612245,4.10739726 21.0755103,4.0460274 C20.089796,3.98465753 17.422109,3.98465753 13.0724493,4.0460274 Z" transform="matrix(-1 0 0 1 24 0)"/>
    <circle cx="6.5" cy="8.5" r="1.5" stroke="#979797" stroke-width="1.5" transform="matrix(-1 0 0 1 13 0)"/>
    <path stroke="#979797" stroke-linecap="round" stroke-linejoin="round" stroke-width="1.5" d="M5.93356889,9 C10.2603163,3 10.0082694,0 5.17742807,0 C0.346586764,0 -1.10366276,2.52 0.826679503,7.56"/>
  </g>
</svg>
