<svg xmlns="http://www.w3.org/2000/svg" width="50" height="50" viewBox="0 0 50 50">
  <g fill="none" fill-rule="evenodd">
    <circle cx="25" cy="25" r="25" fill="#4A90E2" fill-rule="nonzero"/>
    <path fill="#FFF" d="M20.29,33 C27.837,33 31.965,26.8436531 31.965,21.5054614 C31.965,21.3302127 31.965,21.1559486 31.953,20.9826691 C32.756,20.4116342 33.449,19.7027633 34,18.8914999 C33.252,19.2183681 32.457,19.4329985 31.644,19.5275146 C32.5,19.0224441 33.141,18.2289025 33.448,17.2926022 C32.642,17.7632137 31.761,18.0950047 30.842,18.2732069 C29.288,16.646742 26.689,16.5679786 25.036,18.0979583 C23.971,19.0844703 23.518,20.5553774 23.849,21.9583511 C20.55,21.794917 17.476,20.2609991 15.392,17.7376156 C14.303,19.5836336 14.86,21.9445675 16.663,23.1299572 C16.01,23.1112509 15.371,22.9379713 14.8,22.6248867 L14.8,22.6760829 C14.801,24.5988952 16.178,26.2548964 18.092,26.6359145 C17.488,26.7983641 16.854,26.8219931 16.24,26.7048325 C16.777,28.3509883 18.318,29.47829 20.073,29.5107799 C18.62,30.6351279 16.825,31.2455445 14.977,31.2435754 C14.651,31.2425909 14.325,31.2238846 14,31.1854874 C15.877,32.3708771 18.06,33 20.29,32.9970464"/>
  </g>
</svg>
