<svg xmlns="http://www.w3.org/2000/svg" width="20" height="20" viewBox="0 0 20 20">
  <path fill="#006DFF" fill-rule="evenodd" d="M337.034308,322.404 C336.038308,323.416 335.583308,324.872 335.819308,326.301 L336.256308,328.957 L333.966308,327.703 C333.362308,327.372 332.682308,327.197 332.000308,327.197 C331.317308,327.197 330.637308,327.372 330.033308,327.703 L327.743308,328.957 L328.181308,326.301 C328.416308,324.872 327.961308,323.416 326.965308,322.404 L325.113308,320.523 L327.673308,320.135 C329.050308,319.927 330.239308,319.027 330.855308,317.727 L332.000308,315.31 L333.145308,317.727 C333.760308,319.027 334.950308,319.927 336.326308,320.135 L338.887308,320.523 L337.034308,322.404 Z M341.451308,321.433 C342.525308,320.342 341.933308,318.441 340.448308,318.216 L336.674308,317.645 C336.084308,317.556 335.574308,317.17 335.311308,316.613 L333.623308,313.051 C333.291308,312.35 332.645308,312 332.000308,312 C331.354308,312 330.708308,312.35 330.376308,313.051 L328.689308,316.613 C328.425308,317.17 327.915308,317.556 327.326308,317.645 L323.552308,318.216 C322.067308,318.441 321.474308,320.342 322.548308,321.433 L325.279308,324.206 C325.706308,324.639 325.901308,325.263 325.800308,325.875 L325.155308,329.791 C324.954308,331.01 325.884308,332 326.939308,332 C327.217308,332 327.505308,331.931 327.782308,331.779 L331.157308,329.93 C331.421308,329.786 331.710308,329.713 332.000308,329.713 C332.289308,329.713 332.578308,329.786 332.842308,329.93 L336.218308,331.779 C336.495308,331.931 336.782308,332 337.060308,332 C338.115308,332 339.045308,331.01 338.844308,329.791 L338.200308,325.875 C338.099308,325.263 338.293308,324.639 338.720308,324.206 L341.451308,321.433 Z" transform="translate(-322 -312)"/>
</svg>
