<svg xmlns="http://www.w3.org/2000/svg" width="24" height="25" viewBox="0 0 24 25">
  <g fill="none" stroke="#979797" stroke-width="2" transform="translate(2 1)">
    <path d="M15.0461523,1.74495228 C15.9130088,0.754259129 16.5941103,0.279551993 17.0894569,0.320830874 C17.5848035,0.362109756 18.8231699,1.53855788 20.8045562,3.85017523 C21.217345,4.38680069 20.9490323,5.10918112 19.999618,6.01731651 C19.0502038,6.9254519 15.2938256,10.6199118 8.73048341,17.1006962 C8.11130019,16.3989552 7.55403529,16.2132002 7.05868872,16.5434313 C6.56334214,16.8736623 4.85026856,18.5660964 1.91946798,21.6207337 L0,19.4535924 L4.89154744,14.4382083 C4.93282633,13.7777462 4.78835024,13.1792024 4.45811919,12.642577 C5.28369682,11.4867683 8.81304118,7.85422673 15.0461523,1.74495228 Z"/>
    <circle cx="4.577" cy="4.03" r="1.981"/>
    <path d="M7,17 L5,15"/>
  </g>
</svg>
